HIERARCHY
ROOT mixamorig:Hips
{
	OFFSET 0.000000 201.639420 0.000000
	CHANNELS 6 Xposition Yposition Zposition Xrotation Yrotation Zrotation
	JOINT mixamorig:Spine
	{
		OFFSET 0.006200 19.524994 -2.481800
		CHANNELS 3 Xrotation Yrotation Zrotation
		JOINT mixamorig:Spine1
		{
			OFFSET -0.000900 22.835007 -2.825400
			CHANNELS 3 Xrotation Yrotation Zrotation
			JOINT mixamorig:Spine2
			{
				OFFSET -0.020600 26.552490 -3.193300
				CHANNELS 3 Xrotation Yrotation Zrotation
				JOINT mixamorig:Neck
				{
					OFFSET -0.060000 30.701813 1.352200
					CHANNELS 3 Xrotation Yrotation Zrotation
					JOINT mixamorig:Head
					{
						OFFSET -0.087200 22.547607 3.670900
						CHANNELS 3 Xrotation Yrotation Zrotation
						JOINT mixamorig:HeadTop_End
						{
							OFFSET -0.830600 40.355194 7.893500
							CHANNELS 3 Xrotation Yrotation Zrotation
							End Site
							{
								OFFSET 0.000000 30.592346 0.000000
							}
						}
						JOINT mixamorig:RightEye
						{
							OFFSET -6.302100 18.118591 16.197100
							CHANNELS 3 Xrotation Yrotation Zrotation
							End Site
							{
								OFFSET 0.000000 30.592346 0.000000
							}
						}
						JOINT mixamorig:LeftEye
						{
							OFFSET 6.741500 18.382690 16.401899
							CHANNELS 3 Xrotation Yrotation Zrotation
							End Site
							{
								OFFSET 0.000000 30.592346 0.000000
							}
						}
					}
				}
				JOINT mixamorig:LeftShoulder
				{
					OFFSET 11.924900 18.230499 1.425400
					CHANNELS 3 Xrotation Yrotation Zrotation
					JOINT mixamorig:LeftArm
					{
						OFFSET 25.435989 -0.697632 -5.229300
						CHANNELS 3 Xrotation Yrotation Zrotation
						JOINT mixamorig:LeftForeArm
						{
							OFFSET 54.684776 0.000000 0.000000
							CHANNELS 3 Xrotation Yrotation Zrotation
							JOINT mixamorig:LeftHand
							{
								OFFSET 55.098175 0.000000 0.000000
								CHANNELS 3 Xrotation Yrotation Zrotation
								JOINT mixamorig:LeftHandMiddle1
								{
									OFFSET 23.369751 0.000000 0.000000
									CHANNELS 3 Xrotation Yrotation Zrotation
									JOINT mixamorig:LeftHandMiddle2
									{
										OFFSET 6.378677 0.000000 0.000000
										CHANNELS 3 Xrotation Yrotation Zrotation
										JOINT mixamorig:LeftHandMiddle3
										{
											OFFSET 6.148331 0.000000 0.000000
											CHANNELS 3 Xrotation Yrotation Zrotation
											JOINT mixamorig:LeftHandMiddle4
											{
												OFFSET 6.582504 0.000000 0.000000
												CHANNELS 3 Xrotation Yrotation Zrotation
												End Site
												{
													OFFSET -1.168900 6.395691 1.028606
												}
											}
										}
									}
								}
								JOINT mixamorig:LeftHandThumb1
								{
									OFFSET 7.235672 -3.848206 5.434273
									CHANNELS 3 Xrotation Yrotation Zrotation
									JOINT mixamorig:LeftHandThumb2
									{
										OFFSET 6.568451 -3.792297 3.792300
										CHANNELS 3 Xrotation Yrotation Zrotation
										JOINT mixamorig:LeftHandThumb3
										{
											OFFSET 6.063080 -3.500519 3.500518
											CHANNELS 3 Xrotation Yrotation Zrotation
											JOINT mixamorig:LeftHandThumb4
											{
												OFFSET 4.793182 -2.767334 2.767349
												CHANNELS 3 Xrotation Yrotation Zrotation
												End Site
												{
													OFFSET 0.101639 6.054260 1.275483
												}
											}
										}
									}
								}
								JOINT mixamorig:LeftHandIndex1
								{
									OFFSET 23.101074 -0.309540 4.992809
									CHANNELS 3 Xrotation Yrotation Zrotation
									JOINT mixamorig:LeftHandIndex2
									{
										OFFSET 6.226883 0.000000 0.000000
										CHANNELS 3 Xrotation Yrotation Zrotation
										JOINT mixamorig:LeftHandIndex3
										{
											OFFSET 6.094330 0.000000 0.000000
											CHANNELS 3 Xrotation Yrotation Zrotation
											JOINT mixamorig:LeftHandIndex4
											{
												OFFSET 5.482605 0.000000 0.000000
												CHANNELS 3 Xrotation Yrotation Zrotation
												End Site
												{
													OFFSET -1.427902 5.233032 0.797164
												}
											}
										}
									}
								}
								JOINT mixamorig:LeftHandRing1
								{
									OFFSET 22.299240 0.021149 -3.964172
									CHANNELS 3 Xrotation Yrotation Zrotation
									JOINT mixamorig:LeftHandRing2
									{
										OFFSET 6.321869 0.000000 0.000000
										CHANNELS 3 Xrotation Yrotation Zrotation
										JOINT mixamorig:LeftHandRing3
										{
											OFFSET 5.899796 0.000000 0.000000
											CHANNELS 3 Xrotation Yrotation Zrotation
											JOINT mixamorig:LeftHandRing4
											{
												OFFSET 6.517899 0.000000 0.000000
												CHANNELS 3 Xrotation Yrotation Zrotation
												End Site
												{
													OFFSET -1.637299 6.232208 0.980890
												}
											}
										}
									}
								}
								JOINT mixamorig:LeftHandPinky1
								{
									OFFSET 20.463791 -0.302338 -8.562233
									CHANNELS 3 Xrotation Yrotation Zrotation
									JOINT mixamorig:LeftHandPinky2
									{
										OFFSET 6.908646 0.000000 0.000000
										CHANNELS 3 Xrotation Yrotation Zrotation
										JOINT mixamorig:LeftHandPinky3
										{
											OFFSET 4.622849 0.000000 0.000000
											CHANNELS 3 Xrotation Yrotation Zrotation
											JOINT mixamorig:LeftHandPinky4
											{
												OFFSET 5.216080 0.000000 0.000000
												CHANNELS 3 Xrotation Yrotation Zrotation
												End Site
												{
													OFFSET -0.606308 5.116241 0.814926
												}
											}
										}
									}
								}
							}
						}
					}
				}
				JOINT mixamorig:RightShoulder
				{
					OFFSET -12.001300 18.284088 1.348900
					CHANNELS 3 Xrotation Yrotation Zrotation
					JOINT mixamorig:RightArm
					{
						OFFSET -25.308500 -0.751312 -5.164599
						CHANNELS 3 Xrotation Yrotation Zrotation
						JOINT mixamorig:RightForeArm
						{
							OFFSET -54.684429 0.000000 0.000000
							CHANNELS 3 Xrotation Yrotation Zrotation
							JOINT mixamorig:RightHand
							{
								OFFSET -55.150291 0.000000 0.000000
								CHANNELS 3 Xrotation Yrotation Zrotation
								JOINT mixamorig:RightHandMiddle1
								{
									OFFSET -23.317566 0.000000 0.000000
									CHANNELS 3 Xrotation Yrotation Zrotation
									JOINT mixamorig:RightHandMiddle2
									{
										OFFSET -6.378403 0.000000 0.000000
										CHANNELS 3 Xrotation Yrotation Zrotation
										JOINT mixamorig:RightHandMiddle3
										{
											OFFSET -6.148193 0.000000 0.000000
											CHANNELS 3 Xrotation Yrotation Zrotation
											JOINT mixamorig:RightHandMiddle4
											{
												OFFSET -6.583389 0.000000 0.000000
												CHANNELS 3 Xrotation Yrotation Zrotation
												End Site
												{
													OFFSET 1.171692 6.395905 1.029786
												}
											}
										}
									}
								}
								JOINT mixamorig:RightHandThumb1
								{
									OFFSET -7.190521 -3.860474 5.435846
									CHANNELS 3 Xrotation Yrotation Zrotation
									JOINT mixamorig:RightHandThumb2
									{
										OFFSET -6.567429 -3.791718 3.791708
										CHANNELS 3 Xrotation Yrotation Zrotation
										JOINT mixamorig:RightHandThumb3
										{
											OFFSET -6.062469 -3.500153 3.500166
											CHANNELS 3 Xrotation Yrotation Zrotation
											JOINT mixamorig:RightHandThumb4
											{
												OFFSET -4.792618 -2.767029 2.767022
												CHANNELS 3 Xrotation Yrotation Zrotation
												End Site
												{
													OFFSET -0.100327 6.053253 1.276754
												}
											}
										}
									}
								}
								JOINT mixamorig:RightHandIndex1
								{
									OFFSET -23.048981 -0.310791 4.992554
									CHANNELS 3 Xrotation Yrotation Zrotation
									JOINT mixamorig:RightHandIndex2
									{
										OFFSET -6.227539 0.000000 0.000000
										CHANNELS 3 Xrotation Yrotation Zrotation
										JOINT mixamorig:RightHandIndex3
										{
											OFFSET -6.095047 0.000000 0.000000
											CHANNELS 3 Xrotation Yrotation Zrotation
											JOINT mixamorig:RightHandIndex4
											{
												OFFSET -5.484772 0.000000 0.000000
												CHANNELS 3 Xrotation Yrotation Zrotation
												End Site
												{
													OFFSET 1.420593 5.237305 0.797056
												}
											}
										}
									}
								}
								JOINT mixamorig:RightHandRing1
								{
									OFFSET -22.246323 0.020569 -3.963762
									CHANNELS 3 Xrotation Yrotation Zrotation
									JOINT mixamorig:RightHandRing2
									{
										OFFSET -6.322128 0.000000 0.000000
										CHANNELS 3 Xrotation Yrotation Zrotation
										JOINT mixamorig:RightHandRing3
										{
											OFFSET -5.900024 0.000000 0.000000
											CHANNELS 3 Xrotation Yrotation Zrotation
											JOINT mixamorig:RightHandRing4
											{
												OFFSET -6.518356 0.000000 0.000000
												CHANNELS 3 Xrotation Yrotation Zrotation
												End Site
												{
													OFFSET 1.636398 6.232697 0.982186
												}
											}
										}
									}
								}
								JOINT mixamorig:RightHandPinky1
								{
									OFFSET -20.411011 -0.303314 -8.561701
									CHANNELS 3 Xrotation Yrotation Zrotation
									JOINT mixamorig:RightHandPinky2
									{
										OFFSET -6.907349 0.000000 0.000000
										CHANNELS 3 Xrotation Yrotation Zrotation
										JOINT mixamorig:RightHandPinky3
										{
											OFFSET -4.623840 0.000000 0.000000
											CHANNELS 3 Xrotation Yrotation Zrotation
											JOINT mixamorig:RightHandPinky4
											{
												OFFSET -5.218353 0.000000 0.000000
												CHANNELS 3 Xrotation Yrotation Zrotation
												End Site
												{
													OFFSET 0.602097 5.118835 0.816273
												}
											}
										}
									}
								}
							}
						}
					}
				}
			}
		}
	}
	JOINT mixamorig:LeftUpLeg
	{
		OFFSET 18.168400 -13.561905 -0.039000
		CHANNELS 3 Xrotation Yrotation Zrotation
		JOINT mixamorig:LeftLeg
		{
			OFFSET 0.577358 -80.825211 -3.695000
			CHANNELS 3 Xrotation Yrotation Zrotation
			JOINT mixamorig:LeftFoot
			{
				OFFSET -0.577356 -83.370262 -6.520700
				CHANNELS 3 Xrotation Yrotation Zrotation
				JOINT mixamorig:LeftToeBase
				{
					OFFSET 0.750401 -20.798306 25.135401
					CHANNELS 3 Xrotation Yrotation Zrotation
					JOINT mixamorig:LeftToe_End
					{
						OFFSET -0.000500 0.001200 19.917799
						CHANNELS 3 Xrotation Yrotation Zrotation
						End Site
						{
							OFFSET 0.000000 19.917805 0.000000
						}
					}
				}
			}
		}
	}
	JOINT mixamorig:RightUpLeg
	{
		OFFSET -18.162500 -13.585098 -0.041000
		CHANNELS 3 Xrotation Yrotation Zrotation
		JOINT mixamorig:RightLeg
		{
			OFFSET -0.595024 -80.945297 -3.631900
			CHANNELS 3 Xrotation Yrotation Zrotation
			JOINT mixamorig:RightFoot
			{
				OFFSET 0.595024 -83.218193 -6.561200
				CHANNELS 3 Xrotation Yrotation Zrotation
				JOINT mixamorig:RightToeBase
				{
					OFFSET -0.753601 -20.807106 25.115000
					CHANNELS 3 Xrotation Yrotation Zrotation
					JOINT mixamorig:RightToe_End
					{
						OFFSET 0.000299 0.001700 19.918200
						CHANNELS 3 Xrotation Yrotation Zrotation
						End Site
						{
							OFFSET 0.000000 19.918203 0.000000
						}
					}
				}
			}
		}
	}
}
MOTION
Frames: 4
Frame Time: 0.033333
-5.023872 184.997910 221.150818 178.636221 -29.683719 164.691994 3.280612 -0.021513 -0.644657 6.557045 -0.251146 -2.699181 6.557048 -0.251159 -2.699176 -3.695600 30.059803 3.572867 -4.647212 38.537495 -14.303503 -0.000001 0.000000 0.000001 -0.000001 0.000000 0.000001 -0.000001 0.000000 0.000001 3.699329 -11.165016 -4.901148 0.876624 -10.038548 -40.633567 41.485927 -33.629024 -7.697552 10.765857 3.401460 0.221472 0.048372 2.025293 -9.083300 -0.380014 -1.399304 -20.297002 -0.000003 -0.000013 -0.000007 -0.000001 -0.000001 0.000000 0.695502 2.238322 -1.100938 2.058366 6.016477 2.020129 0.000004 -0.000011 -0.000012 -0.000002 0.000000 0.000000 18.787554 -9.308586 -2.497689 -0.311686 -0.203301 -25.326230 -0.000000 0.000003 -0.000006 -0.000001 0.000004 -0.000001 0.014992 8.425540 -16.632506 -0.327703 -2.241956 -23.784571 -0.000003 0.000000 -0.000001 -0.000002 -0.000003 0.000000 0.319954 14.084264 -12.559133 -0.617474 -5.648598 -33.034924 -0.000004 0.000001 -0.000004 -0.000001 -0.000001 0.000003 3.340992 -2.869146 13.982484 22.856871 -21.036112 61.848476 30.218478 46.267329 1.853509 14.850768 -15.812856 12.607188 -1.091234 -1.764953 3.577235 -0.315747 1.028313 20.755837 0.000006 0.000002 -0.000014 0.000002 0.000002 0.000001 -7.872316 4.512258 -9.421126 -0.631158 -0.109262 -1.291754 0.000000 0.000003 0.000006 0.000002 -0.000002 -0.000000 -1.195540 0.253122 4.699005 0.221823 -1.479305 13.141767 -0.000004 0.000000 0.000014 0.000002 0.000000 -0.000000 1.558544 -5.375207 -1.128029 -1.859424 4.601722 51.064714 0.000000 -0.000002 -0.000004 0.000000 0.000002 -0.000002 5.988472 -7.935747 -4.492510 -1.743636 8.148306 45.919235 0.000006 0.000003 -0.000006 0.000000 -0.000002 0.000003 -37.310311 5.046028 23.060049 54.839391 8.880925 7.977944 -20.836501 2.717729 -11.633122 -1.906111 -0.867143 2.388699 -0.000000 0.000001 0.000000 -18.888463 -9.093995 -6.470641 20.678017 8.300566 0.001175 -2.437943 -1.490218 17.086656 0.043201 1.229368 0.288697 -0.000000 -0.000000 -0.000000 
-3.961452 184.648941 224.169327 179.433482 -28.288936 165.173454 3.321498 0.015993 -0.643422 6.640255 -0.195756 -2.725453 6.640253 -0.195767 -2.725455 -3.778616 31.239660 2.891721 -6.019194 38.800201 -13.960642 0.000003 0.000000 0.000000 0.000003 0.000000 0.000000 0.000003 0.000000 0.000000 3.871209 -11.359879 -4.974589 1.717262 -11.158780 -40.312668 42.308763 -33.206392 -8.206267 9.914225 3.052513 -0.369761 -0.006755 1.694085 -8.852052 -0.378591 -1.398088 -20.280418 -0.000003 -0.000014 -0.000005 0.000001 -0.000000 0.000001 0.354860 2.117106 -1.003441 2.164667 6.281105 2.070389 0.000003 -0.000011 -0.000011 0.000002 0.000000 0.000000 19.764795 -9.441911 -2.382453 -0.333288 -0.251225 -25.764298 -0.000000 0.000003 -0.000006 -0.000000 0.000001 -0.000001 -0.015480 8.125543 -16.028938 -0.319074 -2.224579 -23.481019 0.000002 0.000002 0.000002 -0.000001 0.000001 -0.000003 0.278696 13.832381 -11.657807 -0.613513 -5.644490 -32.812727 0.000000 0.000004 -0.000005 -0.000002 -0.000001 0.000003 3.404988 -3.132232 13.927185 22.807221 -20.631698 61.131668 31.567147 47.655828 0.559572 16.047922 -17.029127 13.290950 -1.110723 -1.580601 4.705389 -0.345248 1.105435 21.679379 0.000009 0.000002 -0.000011 0.000004 -0.000000 -0.000000 -7.714437 3.446179 -9.710863 -0.640116 -0.092822 -1.289192 0.000005 0.000006 0.000008 -0.000002 -0.000003 -0.000000 -1.213906 0.255673 6.171627 0.194218 -1.371487 14.248774 0.000002 0.000000 0.000014 -0.000000 0.000001 -0.000000 1.761196 -3.716582 -0.988525 -2.003812 4.712983 53.181946 -0.000001 0.000001 -0.000002 0.000001 -0.000000 0.000001 4.946735 -6.475652 -1.124585 -1.836641 8.234568 47.572599 0.000005 0.000002 -0.000006 0.000003 0.000001 0.000000 -38.236915 5.787903 23.997170 55.628807 8.788916 7.066109 -20.397180 2.437121 -10.681959 -1.599333 -0.722972 1.932704 0.000000 0.000001 0.000000 -19.814930 -8.301177 -6.273618 20.544207 8.812926 -0.300054 -1.079489 -1.232438 17.335304 0.015993 1.219842 0.237311 0.000000 -0.000001 0.000000 
-2.910683 184.176147 226.756302 180.095382 -26.985937 165.653370 3.420606 0.086084 -0.678650 6.841506 -0.078970 -2.819996 6.841509 -0.078963 -2.819994 -3.730277 32.251624 2.353278 -7.232546 38.978807 -13.635213 0.000001 -0.000000 -0.000000 0.000001 -0.000000 -0.000000 0.000001 -0.000000 -0.000000 4.041751 -11.609780 -4.873912 2.459687 -12.336765 -39.908184 43.316039 -32.665615 -8.644906 9.226010 2.721311 -0.996586 -0.049904 1.367598 -8.529890 -0.377407 -1.397028 -20.271474 -0.000003 -0.000009 -0.000005 -0.000000 0.000003 -0.000001 0.032809 2.001894 -0.907507 2.250203 6.496568 2.113594 0.000002 -0.000011 -0.000012 0.000002 0.000000 0.000000 20.671772 -9.573200 -2.166014 -0.354083 -0.296202 -26.176891 0.000001 0.000002 -0.000007 -0.000001 -0.000002 -0.000003 -0.025951 7.858449 -15.307395 -0.311358 -2.208509 -23.204156 -0.000003 0.000003 0.000000 0.000001 -0.000002 0.000001 0.130574 13.674108 -10.560366 -0.609610 -5.640903 -32.611759 -0.000005 0.000001 -0.000005 0.000003 -0.000001 -0.000000 3.496134 -3.503836 14.061758 22.774455 -20.447892 60.594440 32.611910 48.824794 -0.710827 17.131352 -17.970701 13.424879 -1.138226 -1.434942 5.675288 -0.379740 1.192284 22.725185 0.000011 0.000002 -0.000018 0.000003 -0.000002 0.000000 -7.362868 2.406131 -10.028431 -0.641204 -0.093351 -1.289278 0.000004 0.000003 0.000005 0.000000 -0.000002 -0.000000 -1.223031 0.389165 7.423018 0.161107 -1.252939 15.473095 -0.000003 -0.000003 0.000016 0.000004 0.000000 -0.000001 1.866693 -2.043717 -0.827054 -2.153574 4.819889 55.325451 0.000003 0.000005 -0.000011 -0.000001 0.000003 0.000001 3.648297 -5.142702 2.486544 -1.936081 8.321408 49.292710 0.000004 -0.000003 -0.000003 -0.000001 -0.000001 -0.000000 -39.088578 6.375365 24.793754 56.414832 8.822975 6.282062 -20.022331 2.226154 -9.955959 -1.284975 -0.560604 1.466107 0.000000 -0.000001 0.000000 -20.996582 -7.545899 -6.131007 21.030996 9.312866 -0.595549 -0.142600 -0.999571 17.489261 0.007209 1.219867 0.230259 -0.000000 -0.000002 -0.000000 
-2.132160 183.784866 228.575928 180.538634 -26.040269 166.019742 3.520364 0.150761 -0.723384 7.043964 0.030488 -2.925552 7.043963 0.030485 -2.925556 -3.737191 32.951903 2.043695 -8.030206 39.092864 -13.428049 0.000001 0.000000 0.000000 0.000001 0.000000 0.000000 0.000001 0.000000 0.000000 4.181809 -11.792217 -4.702954 2.971911 -13.237386 -39.615483 44.083882 -32.222114 -8.940066 8.767884 2.466149 -1.491130 -0.077391 1.125760 -8.271351 -0.376555 -1.396236 -20.266590 0.000001 -0.000009 -0.000003 -0.000002 -0.000001 0.000002 -0.202759 1.917067 -0.837129 2.309240 6.646012 2.144066 -0.000001 -0.000011 -0.000012 0.000001 -0.000000 -0.000000 21.330039 -9.666868 -1.982241 -0.369480 -0.328923 -26.477869 -0.000001 0.000001 -0.000006 0.000000 -0.000002 0.000000 -0.025886 7.667073 -14.746546 -0.305862 -2.196787 -23.004352 -0.000002 0.000001 0.000004 -0.000001 0.000001 0.000001 0.000143 13.573404 -9.704136 -0.606718 -5.638378 -32.467133 -0.000006 0.000002 -0.000001 0.000000 0.000001 0.000000 3.573404 -3.799986 14.242129 22.756985 -20.374333 60.244031 33.294768 49.628373 -1.639165 17.870782 -18.603243 13.352117 -1.161658 -1.335981 6.360319 -0.407313 1.258783 23.530937 0.000009 -0.000001 -0.000011 0.000001 0.000001 0.000002 -7.056939 1.634994 -10.265617 -0.641995 -0.093701 -1.289321 0.000004 0.000002 0.000006 -0.000001 0.000001 -0.000000 -1.231398 0.518743 8.302183 0.134009 -1.162688 16.410687 0.000001 0.000003 0.000016 0.000000 -0.000002 -0.000003 1.916152 -0.793874 -0.700448 -2.267729 4.895956 56.925177 -0.000000 0.000003 -0.000004 -0.000000 0.000001 0.000001 2.568400 -4.244812 5.255923 -2.012614 8.384783 50.587089 0.000008 -0.000000 -0.000006 0.000005 0.000000 0.000001 -39.699460 6.771362 25.337558 56.982725 8.885613 5.725996 -19.747885 2.087928 -9.471080 -1.048853 -0.432465 1.115534 -0.000000 -0.000001 0.000000 -21.934212 -6.988044 -6.031001 21.524503 9.672310 -0.826810 0.448838 -0.836534 17.588096 0.020436 1.224458 0.204308 -0.000000 0.000000 0.000000 
